<?xml version="1.0" encoding="UTF-8" standalone="no"?>
<svg width="28px" height="20px" viewBox="0 0 28 20" version="1.1" xmlns="http://www.w3.org/2000/svg" xmlns:xlink="http://www.w3.org/1999/xlink">
    <!-- Generator: Sketch 39.1 (31720) - http://www.bohemiancoding.com/sketch -->
    <title>arrow-back</title>
    <desc>Created with Sketch.</desc>
    <defs>
        <polygon id="path-1" points="27.9637247 9.99865385 27.9637247 19.9969231 0 19.9969231 0 0.000384615385 27.9637247 0.000384615385 27.9637247 9.99865385"></polygon>
    </defs>
    <g id="Welcome" stroke="none" stroke-width="1" fill="none" fill-rule="evenodd">
        <g id="arrow-back">
            <g id="Page-1" transform="translate(14.000000, 10.000000) scale(-1, 1) translate(-14.000000, -10.000000) ">
                <mask id="mask-2" fill="white">
                    <use xlink:href="#path-1"></use>
                </mask>
                <g id="Clip-2"></g>
                <path d="M27.7407827,9.45615385 L18.6719568,0.225384615 C18.3787314,-0.0746153846 17.8980837,-0.0746153846 17.6048583,0.225384615 C17.3101215,0.523846154 17.3101215,1.01307692 17.6048583,1.31307692 L25.3813765,9.23 L0.754979757,9.23 C0.337813765,9.23 -0.000755735493,9.57307692 -0.000755735493,9.99923077 C-0.000755735493,10.4238462 0.337813765,10.7684615 0.754979757,10.7684615 L25.3813765,10.7684615 L17.6048583,18.6838462 C17.3101215,18.9838462 17.3101215,19.4730769 17.6048583,19.7715385 C17.7529825,19.9238462 17.9464507,19.9976923 18.1384076,19.9976923 C18.3318758,19.9976923 18.5253441,19.9223077 18.6749798,19.7715385 L27.7438057,10.5407692 C28.037031,10.2423077 28.037031,9.75307692 27.7438057,9.45307692 L27.7407827,9.45615385 Z" id="Fill-1" fill="#FFFFFF" mask="url(#mask-2)"></path>
            </g>
        </g>
    </g>
</svg>