<?xml version="1.0" encoding="UTF-8" standalone="no"?>
<svg width="186px" height="38px" viewBox="0 0 186 38" version="1.1" xmlns="http://www.w3.org/2000/svg" xmlns:xlink="http://www.w3.org/1999/xlink">
    <!-- Generator: Sketch 39.1 (31720) - http://www.bohemiancoding.com/sketch -->
    <title>LaunchPad Lab Logo</title>
    <desc>Created with Sketch.</desc>
    <defs></defs>
    <g id="Welcome" stroke="none" stroke-width="1" fill="none" fill-rule="evenodd">
        <g id="LaunchPad-Lab-Logo" fill="#FEFEFE">
            <g id="Page-1" transform="translate(0.000000, 1.000000)">
                <path d="M11.8482528,34.6337559 C11.7444992,34.6337559 11.6393894,34.632641 11.5322452,34.6299653 C11.3916466,34.6266206 11.2804336,34.5113414 11.2840503,34.3724266 C11.287667,34.2339578 11.4110863,34.134064 11.5449036,34.1275976 C14.3209337,34.1964976 15.9233502,33.2847438 16.3164384,33.0263132 L16.3164384,32.0844575 C16.3164384,31.9457657 16.4303639,31.8333852 16.5709624,31.8333852 L21.9112206,31.8333852 L21.9112206,22.5178435 L18.4636178,19.7027563 L18.4636178,25.9641792 C18.4636178,26.0362008 18.4321978,26.1051008 18.3774955,26.1525949 C18.3225671,26.200535 18.2504595,26.2221638 18.1769956,26.2132447 C18.1584601,26.211015 16.3164384,25.9525844 16.3164384,23.481328 L16.3164384,17.4216995 C16.3164384,5.82309429 11.9847826,0.975569864 11.4278135,0.723828601 L11.0959828,0.723828601 C10.5340407,0.972671161 6.14858679,5.80837779 6.14858679,17.4002937 L6.14858679,18.9020452 C6.14858679,18.9702762 6.12033146,19.0356085 6.07037603,19.0831027 L0.713390681,24.1692127 L0.713390681,29.7162166 L5.86512928,30.3586139 C6.00459761,30.3757832 6.1036043,30.5015423 6.08597297,30.6391193 C6.06834164,30.7771422 5.94424422,30.8759211 5.8011592,30.856968 L0.426994612,30.1869215 C0.299732587,30.1710901 0.204116535,30.064284 0.204116535,29.9380789 L0.204116535,24.0624066 C0.204116535,23.9941756 0.232145827,23.9286203 0.282101258,23.8813491 L5.63886056,18.7950161 L5.63886056,17.4002937 C5.63886056,5.38984958 10.3260815,0.221460959 11.0699879,0.221460959 L11.4544865,0.221460959 C12.1907075,0.221460959 16.8257125,5.39631592 16.8257125,17.4216995 L16.8257125,23.481328 C16.8257125,24.9411598 17.5391032,25.4540074 17.9543436,25.6290445 L17.9543436,19.1685029 C17.9543436,19.0712849 18.0115324,18.98254 18.1005932,18.9412892 C18.189654,18.8995924 18.295216,18.9127481 18.3711663,18.9749587 L22.3280433,22.2061214 C22.3865884,22.2538385 22.4204948,22.3249682 22.4204948,22.3996656 L22.4204948,32.0844575 C22.4204948,32.2227034 22.3063432,32.3355298 22.1659707,32.3355298 L16.8257125,32.3355298 L16.8257125,33.1563089 C16.8257125,33.2327901 16.7902238,33.3048117 16.7298704,33.3525289 C16.6613795,33.4064893 15.064388,34.6337559 11.8482528,34.6337559" id="Fill-1"></path>
                <path d="M5.83318945,35.3166236 C5.7667329,35.3166236 5.70276283,35.2909812 5.65529386,35.2450479 C5.6062426,35.1979997 5.57843936,35.1331133 5.57843936,35.0653283 L5.57843936,30.6062301 C5.57843936,30.4675383 5.69259091,30.3549348 5.83318945,30.3549348 C5.97378799,30.3549348 6.08793954,30.4675383 6.08793954,30.6062301 L6.08793954,34.8082355 L6.87886286,34.7899514 L9.49688912,32.8446983 L9.49688912,22.3038969 L8.95348253,22.1522724 L6.9394423,27.0657981 C6.88677436,27.1944559 6.73894245,27.2566666 6.6078377,27.2047129 C6.47718503,27.1525362 6.41434517,27.0060402 6.46701311,26.8773823 L8.56672351,21.75515 C8.61532269,21.6365261 8.74687953,21.5727546 8.87188112,21.6075391 L9.82103432,21.8719901 C9.93066501,21.9025379 10.0061633,22.0013168 10.0061633,22.1136973 L10.0061633,32.9702344 C10.0061633,33.0491684 9.96864018,33.1231968 9.90489615,33.170691 L7.11982435,35.2394735 C7.07732833,35.2713592 7.0257906,35.2889744 6.97267057,35.2903123 L5.83906656,35.3166236 L5.83318945,35.3166236 Z" id="Fill-3"></path>
                <polygon id="Fill-5" points="30.1978773 32.1638151 30.1978773 15.770754 32.9831751 15.770754 32.9831751 29.5576575 39.1552703 29.5576575 39.1552703 32.1638151"></polygon>
                <path d="M45.5153653,26.9519459 C44.5069889,26.9994401 44.0266482,27.6630202 44.0266482,28.5629562 C44.0266482,29.5103864 44.5309494,30.1503309 45.3236811,30.1503309 C46.5960753,30.1503309 48.0129108,29.6765044 48.0129108,29.6765044 L48.0129108,26.8105784 L45.5153653,26.9519459 Z M50.7505136,28.9417945 C50.8226212,29.7714927 51.1589727,29.9842129 51.8551842,30.1503309 L51.6872344,32.4238065 C49.9819685,32.4238065 49.1657284,32.1163209 48.4451044,31.5952232 C48.4451044,31.5952232 46.764025,32.4238065 44.9391825,32.4238065 C42.849644,32.4238065 41.2646328,30.9314201 41.2646328,28.6343089 C41.2646328,26.1944924 42.8256835,25.1995681 45.2032003,25.0334501 L48.0129108,24.7970942 L48.0129108,24.0385258 C48.0129108,23.0436015 47.5327961,22.5461393 46.6198098,22.5461393 C44.4588418,22.5461393 41.9612963,22.7836101 41.9612963,22.7836101 L41.8652281,20.5560678 C41.8652281,20.5560678 44.9873296,20.0588286 46.764025,20.0588286 C49.3339042,20.0588286 50.7505136,21.1487412 50.7505136,24.0621613 L50.7505136,28.9417945 Z" id="Fill-7"></path>
                <path d="M64.291487,20.3427678 L64.291487,32.1639043 L61.5534321,32.1639043 L61.5534321,31.5712309 C61.5534321,31.5712309 59.7765106,32.4238957 58.5278509,32.4238957 C55.4538966,32.4238957 54.4697068,30.6238007 54.4697068,26.5257027 L54.4697068,20.3427678 L57.2068575,20.3427678 L57.2068575,26.5018441 C57.2068575,28.9655193 57.543209,30.0554318 59.0800731,30.0554318 C60.0886756,30.0554318 61.5534321,29.4393458 61.5534321,29.4393458 L61.5534321,20.3427678 L64.291487,20.3427678 Z" id="Fill-9"></path>
                <path d="M68.0816802,32.1638151 L68.0816802,20.3424556 L70.8188309,20.3424556 L70.8188309,20.935129 C70.8188309,20.935129 72.5720179,20.0588286 73.8930113,20.0588286 C77.0390732,20.0588286 77.975568,22.2386538 77.975568,25.9806572 L77.975568,32.1638151 L75.2379652,32.1638151 L75.2379652,26.0045158 C75.2379652,23.9910316 74.9497608,22.5225038 73.3645235,22.5225038 C72.308,22.5225038 70.8188309,23.1147312 70.8188309,23.1147312 L70.8188309,32.1638151 L68.0816802,32.1638151 Z" id="Fill-11"></path>
                <path d="M89.2347537,20.4376892 L89.1384595,22.7361382 C89.1384595,22.7361382 87.3852725,22.5461616 86.4727382,22.5461616 C84.3117702,22.5461616 83.5671857,23.5885801 83.5671857,26.0995264 C83.5671857,28.7054609 84.2636232,29.9603767 86.4966987,29.9603767 C87.4096851,29.9603767 89.162646,29.7953735 89.162646,29.7953735 L89.2347537,32.0927077 C89.2347537,32.0927077 87.3133909,32.4238288 85.6567242,32.4238288 C82.1982712,32.4238288 80.7814357,30.3639654 80.7814357,26.0995264 C80.7814357,22.1200522 82.3427125,20.0588509 85.7279276,20.0588509 C87.4096851,20.0588509 89.2347537,20.4376892 89.2347537,20.4376892" id="Fill-13"></path>
                <path d="M92.0167965,32.1638151 L92.0167965,15.4394099 L94.7541733,15.4394099 L94.7541733,20.7226318 C94.7541733,20.7226318 96.5552813,20.0588286 97.8281276,20.0588286 C100.97419,20.0588286 101.910684,22.2386538 101.910684,25.9570216 L101.910684,32.1638151 L99.1488949,32.1638151 L99.1488949,25.9570216 C99.1488949,23.9671731 98.8848771,22.5225038 97.2996398,22.5225038 C96.2673029,22.5225038 94.7541733,22.9961073 94.7541733,22.9961073 L94.7541733,32.1638151 L92.0167965,32.1638151 Z" id="Fill-15"></path>
                <path d="M111.368852,24.6546564 C113.265576,24.6546564 114.153698,23.2811168 114.153698,21.3376475 C114.153698,19.4191516 113.265576,18.329239 111.368852,18.329239 L108.415153,18.329239 L108.415153,24.6546564 L111.368852,24.6546564 Z M108.415153,27.2130968 L108.415153,32.1638597 L105.60499,32.1638597 L105.60499,15.7707986 L111.392587,15.7707986 C114.970842,15.7707986 117.03642,17.6667738 117.03642,21.3376475 C117.03642,25.0096361 114.970842,27.2130968 111.392587,27.2130968 L108.415153,27.2130968 Z" id="Fill-17"></path>
                <path d="M123.394797,26.9519459 C122.386195,26.9994401 121.90608,27.6630202 121.90608,28.5629562 C121.90608,29.5103864 122.410608,30.1503309 123.203339,30.1503309 C124.475507,30.1503309 125.893247,29.6765044 125.893247,29.6765044 L125.893247,26.8105784 L123.394797,26.9519459 Z M128.630172,28.9417945 C128.702505,29.7714927 129.038179,29.9842129 129.735068,30.1503309 L129.566667,32.4238065 C127.862531,32.4238065 127.04516,32.1163209 126.325441,31.5952232 C126.325441,31.5952232 124.644135,32.4238065 122.819519,32.4238065 C120.730206,32.4238065 119.144969,30.9314201 119.144969,28.6343089 C119.144969,26.1944924 120.70602,25.1995681 123.083084,25.0334501 L125.893247,24.7970942 L125.893247,24.0385258 C125.893247,23.0436015 125.412002,22.5461393 124.499694,22.5461393 C122.338048,22.5461393 119.840728,22.7836101 119.840728,22.7836101 L119.745564,20.5560678 C119.745564,20.5560678 122.866536,20.0588286 124.644135,20.0588286 C127.213562,20.0588286 128.630172,21.1487412 128.630172,24.0621613 L128.630172,28.9417945 Z" id="Fill-19"></path>
                <path d="M139.048253,29.4153535 L139.048253,22.6885772 C138.929354,22.6649416 137.800271,22.4274709 136.791895,22.4274709 C135.278765,22.4274709 134.485581,23.7546312 134.485581,26.1944478 C134.485581,28.539276 135.038029,29.9839453 136.59908,29.9839453 C137.703977,29.9839453 139.048253,29.4153535 139.048253,29.4153535 L139.048253,29.4153535 Z M141.810268,32.1637705 L139.048253,32.1637705 L139.048253,31.6188142 C139.048253,31.6188142 137.535575,32.4237619 136.166887,32.4237619 C132.87774,32.4237619 131.700509,30.0314395 131.700509,26.1705892 C131.700509,22.1197623 133.428832,20.058784 136.59908,20.058784 C137.535575,20.058784 138.929354,20.342857 139.048253,20.3662696 L139.048253,15.4393653 L141.810268,15.4393653 L141.810268,32.1637705 Z" id="Fill-21"></path>
                <polygon id="Fill-23" points="151.266922 32.1638151 151.266922 15.770754 154.053124 15.770754 154.053124 29.5576575 160.224767 29.5576575 160.224767 32.1638151"></polygon>
                <path d="M166.584613,26.9519459 C165.575784,26.9994401 165.095896,27.6630202 165.095896,28.5629562 C165.095896,29.5103864 165.600197,30.1503309 166.392929,30.1503309 C167.665097,30.1503309 169.083063,29.6765044 169.083063,29.6765044 L169.083063,26.8105784 L166.584613,26.9519459 Z M171.819761,28.9417945 C171.892095,29.7714927 172.227994,29.9842129 172.924884,30.1503309 L172.756256,32.4238065 C171.05212,32.4238065 170.23475,32.1163209 169.515256,31.5952232 C169.515256,31.5952232 167.833725,32.4238065 166.009334,32.4238065 C163.920022,32.4238065 162.334559,30.9314201 162.334559,28.6343089 C162.334559,26.1944924 163.895835,25.1995681 166.2729,25.0334501 L169.083063,24.7970942 L169.083063,24.0385258 C169.083063,23.0436015 168.601818,22.5461393 167.68951,22.5461393 C165.527637,22.5461393 163.030318,22.7836101 163.030318,22.7836101 L162.93538,20.5560678 C162.93538,20.5560678 166.056125,20.0588286 167.833725,20.0588286 C170.403378,20.0588286 171.819761,21.1487412 171.819761,24.0621613 L171.819761,28.9417945 Z" id="Fill-25"></path>
                <path d="M183.00693,26.0994372 C183.00693,23.8259616 182.286306,22.4985783 180.845284,22.4985783 C179.597302,22.4985783 178.444258,22.8774166 178.444258,22.8774166 L178.444258,29.9602875 C178.444258,29.9602875 179.549155,30.0552758 180.005535,30.0552758 C182.478668,30.0552758 183.00693,28.3729127 183.00693,26.0994372 M185.793132,26.0994372 C185.793132,30.5052438 184.112052,32.4237396 180.02927,32.4237396 C178.780384,32.4237396 175.706203,32.1401126 175.706203,32.1401126 L175.706203,15.439343 L178.444258,15.439343 L178.444258,20.6750707 C178.444258,20.6750707 179.932975,20.0587617 181.2065,20.0587617 C184.280454,20.0587617 185.793132,22.1910927 185.793132,26.0994372" id="Fill-27"></path>
            </g>
        </g>
    </g>
</svg>