<?xml version="1.0" encoding="UTF-8" standalone="no"?>
<svg width="427px" height="429px" viewBox="0 0 427 429" version="1.1" xmlns="http://www.w3.org/2000/svg" xmlns:xlink="http://www.w3.org/1999/xlink">
    <!-- Generator: Sketch 39.1 (31720) - http://www.bohemiancoding.com/sketch -->
    <title>rocket</title>
    <desc>Created with Sketch.</desc>
    <defs>
        <polygon id="path-1" points="412.973173 648.761835 412.973173 0.32715083 0.000409896219 0.32715083 0.000409896219 648.761835 412.973173 648.761835"></polygon>
    </defs>
    <g id="Welcome" stroke="none" stroke-width="1" fill="none" fill-rule="evenodd" opacity="0.0789412313">
        <g id="rocket">
            <g id="LPL-LOGO" transform="translate(11.000000, -157.000000)">
                <g id="Page-1">
                    <g id="Group-3" transform="translate(0.000000, 0.045086)">
                        <mask id="mask-2" fill="white">
                            <use xlink:href="#path-1"></use>
                        </mask>
                        <g id="Clip-2"></g>
                        <path d="M216.451573,648.761835 C214.519596,648.761835 212.563025,648.742708 210.573662,648.692157 C207.95989,648.627944 205.894013,646.455638 205.95823,643.837941 C206.027913,641.227074 208.324698,639.345775 210.808669,639.225547 C262.415969,640.520733 292.203127,623.341752 299.504745,618.473873 L299.504745,600.722441 C299.504745,598.111574 301.626641,595.989818 304.23768,595.989818 L403.506346,595.989818 L403.506346,420.461998 L339.420439,367.414003 L339.420439,485.39893 C339.420439,486.75833 338.835654,488.054882 337.819111,488.951129 C336.795737,489.852841 335.462208,490.259978 334.089055,490.094664 C333.746109,490.049579 299.504745,485.176235 299.504745,438.615102 L299.504745,324.435126 C299.504745,105.879245 218.987465,14.5371769 208.633486,9.79362484 L202.470013,9.79362484 C192.01766,14.4825277 110.496134,105.6019 110.496134,324.030722 L110.496134,352.32672 C110.496134,353.613709 109.971466,354.846049 109.043735,355.738198 L9.46764622,451.579262 L9.46764622,556.101355 L105.2317,568.20479 C107.82361,568.528587 109.664044,570.898997 109.333395,573.490736 C109.005478,576.089306 106.701861,577.951478 104.043001,577.596258 L4.13899538,564.970923 C1.77252788,564.673085 0.000409896219,562.657895 0.000409896219,560.275189 L0.000409896219,449.565439 C0.000409896219,448.27845 0.523710735,447.04611 1.45144251,446.152595 L101.028897,350.312897 L101.028897,324.030722 C101.028897,97.717384 188.150972,0.327014207 201.980871,0.327014207 L209.132193,0.327014207 C222.811796,0.327014207 308.971982,97.8376123 308.971982,324.435126 L308.971982,438.615102 C308.971982,466.122785 322.238956,475.786133 329.953203,479.084213 L329.953203,357.348983 C329.953203,355.516868 331.013467,353.845969 332.672181,353.067217 C334.324063,352.278902 336.287466,352.530289 337.70434,353.702514 L411.25885,414.588573 C412.345075,415.487553 412.973583,416.825093 412.973583,418.235042 L412.973583,600.722441 C412.973583,603.333307 410.851687,605.456429 408.240648,605.456429 L308.971982,605.456429 L308.971982,620.920791 C308.971982,622.362164 308.317514,623.72293 307.193032,624.617811 C305.922354,625.634286 276.229472,648.761835 216.451573,648.761835" id="Fill-1" fill="#00ADEF" mask="url(#mask-2)"></path>
                    </g>
                    <path d="M104.63735,661.672849 C103.40083,661.672849 102.213497,661.19057 101.329488,660.325746 C100.418152,659.43633 99.9030489,658.216286 99.9030489,656.938861 L99.9030489,572.912957 C99.9030489,570.302091 102.022212,568.180335 104.63735,568.180335 C107.252488,568.180335 109.371652,570.302091 109.371652,572.912957 L109.371652,652.091475 L124.074629,651.748551 L172.742973,615.095321 L172.742973,416.472742 L162.636299,413.61732 L125.195012,506.201291 C124.220825,508.627717 121.469055,509.79721 119.032905,508.818989 C116.607686,507.833937 115.439482,505.076884 116.4205,502.655923 L155.449452,406.13311 C156.355322,403.899323 158.795571,402.695674 161.123782,403.352831 L178.762982,408.334107 C180.802899,408.90929 182.21021,410.770096 182.21021,412.889119 L182.21021,617.4589 C182.21021,618.945359 181.510653,620.343012 180.323321,621.23926 L128.553428,660.224645 C127.766428,660.821688 126.805904,661.152315 125.818054,661.176908 L104.748022,661.672849 L104.63735,661.672849 Z" id="Fill-4" fill="#00ADEF"></path>
                </g>
            </g>
        </g>
    </g>
</svg>