<?xml version="1.0" encoding="UTF-8" standalone="no"?>
<svg width="186px" height="51px" viewBox="0 0 186 51" version="1.1" xmlns="http://www.w3.org/2000/svg" xmlns:xlink="http://www.w3.org/1999/xlink">
    <!-- Generator: Sketch 39.1 (31720) - http://www.bohemiancoding.com/sketch -->
    <title>Salesforce Logo</title>
    <desc>Created with Sketch.</desc>
    <defs>
        <polygon id="path-1" points="0 49.9962 185.011 49.9962 185.011 1.0002 0 1.0002"></polygon>
    </defs>
    <g id="Welcome" stroke="none" stroke-width="1" fill="none" fill-rule="evenodd">
        <g id="Salesforce-Logo">
            <g id="Page-1">
                <path d="M43.9581,21.8132 C43.4251,21.8132 43.0451,21.9972 42.7961,22.3762 C42.5451,22.7592 42.4181,23.3052 42.4181,24.0002 C42.4181,24.6942 42.5451,25.2432 42.7961,25.6292 C43.0451,26.0132 43.4251,26.1992 43.9581,26.1992 C44.4911,26.1992 44.8721,26.0122 45.1251,25.6292 C45.3801,25.2432 45.5101,24.6942 45.5101,24.0002 C45.5101,23.3052 45.3811,22.7592 45.1261,22.3772 C44.8721,21.9972 44.4911,21.8132 43.9581,21.8132 L43.9581,21.8132 Z" id="Fill-1" fill="#FEFEFE"></path>
                <path d="M27.6423,21.7882 C27.1093,21.7882 26.7313,21.9972 26.4823,22.3762 C26.3173,22.6272 26.2113,22.9482 26.1543,23.3342 L29.0483,23.3342 C29.0193,22.9622 28.9463,22.6272 28.7793,22.3772 C28.5263,21.9972 28.1753,21.7882 27.6423,21.7882" id="Fill-3" fill="#FEFEFE"></path>
                <path d="M19.6694,24.2377 C19.6694,24.2377 19.1494,24.1517 18.5674,24.1437 C17.7414,24.1337 17.3884,24.4377 17.3914,24.4367 C17.1474,24.6097 17.0284,24.8667 17.0284,25.2227 C17.0284,25.4487 17.0704,25.6257 17.1504,25.7507 C17.2034,25.8327 17.2254,25.8637 17.3844,25.9907 C17.3824,25.9897 17.7484,26.2777 18.5734,26.2277 C19.1544,26.1927 19.6694,26.0827 19.6694,26.0827 L19.6694,26.0827 L19.6694,24.2377 Z" id="Fill-5" fill="#FEFEFE"></path>
                <path d="M60.1364,21.7882 C59.6034,21.7882 59.2254,21.9972 58.9764,22.3762 C58.8114,22.6272 58.7054,22.9482 58.6484,23.3342 L61.5424,23.3342 C61.5134,22.9622 61.4404,22.6272 61.2734,22.3772 C61.0204,21.9972 60.6694,21.7882 60.1364,21.7882" id="Fill-7" fill="#FEFEFE"></path>
                <g id="Group-11" transform="translate(0.000000, 0.996200)" fill="#FEFEFE">
                    <path d="M62.8044,23.2369 C62.7934,23.3409 62.6864,23.3429 62.6864,23.3429 L58.6304,23.3389 C58.6554,23.9559 58.8024,24.3919 59.1014,24.6889 C59.3944,24.9789 59.8614,25.1649 60.4894,25.1659 C61.4524,25.1679 61.8644,24.9749 62.1554,24.8659 C62.1554,24.8659 62.2674,24.8259 62.3084,24.9369 L62.5734,25.6799 C62.6274,25.8049 62.5844,25.8489 62.5394,25.8739 C62.2844,26.0139 61.6684,26.2759 60.4954,26.2789 C59.9274,26.2809 59.4314,26.1989 59.0234,26.0409 C58.6124,25.8829 58.2694,25.6549 58.0024,25.3649 C57.7364,25.0769 57.5384,24.7299 57.4154,24.3339 C57.2924,23.9429 57.2304,23.5059 57.2304,23.0389 C57.2304,22.5789 57.2904,22.1429 57.4084,21.7439 C57.5274,21.3419 57.7114,20.9879 57.9584,20.6899 C58.2044,20.3929 58.5184,20.1529 58.8924,19.9769 C59.2654,19.8029 59.7254,19.7169 60.2324,19.7169 C60.6664,19.7169 61.0634,19.8109 61.3944,19.9529 C61.6484,20.0619 61.9034,20.2589 62.1644,20.5399 C62.3294,20.7179 62.5814,21.1049 62.6834,21.4899 C62.9444,22.4039 62.8094,23.1939 62.8044,23.2369 L62.8044,23.2369 Z M56.7974,25.9719 C56.3434,26.1509 55.7134,26.2749 55.0994,26.2749 C54.0604,26.2749 53.2644,25.9749 52.7334,25.3849 C52.2044,24.7959 51.9354,23.9929 51.9354,22.9989 C51.9354,22.5389 52.0014,22.1039 52.1314,21.7089 C52.2614,21.3109 52.4574,20.9609 52.7144,20.6669 C52.9714,20.3739 53.2964,20.1389 53.6794,19.9679 C54.0634,19.7969 54.5124,19.7109 55.0154,19.7109 C55.3534,19.7109 55.6554,19.7319 55.9154,19.7709 C56.1924,19.8129 56.5594,19.9129 56.7144,19.9729 C56.7424,19.9839 56.8204,20.0229 56.7894,20.1139 C56.6774,20.4339 56.5994,20.6419 56.4944,20.9329 C56.4494,21.0569 56.3554,21.0159 56.3554,21.0159 C55.9604,20.8919 55.5824,20.8349 55.0884,20.8349 C54.4954,20.8349 54.0504,21.0329 53.7584,21.4199 C53.4644,21.8099 53.3004,22.3199 53.2984,22.9979 C53.2964,23.7439 53.4824,24.2959 53.8134,24.6369 C54.1434,24.9779 54.6044,25.1509 55.1834,25.1509 C55.4204,25.1509 55.6414,25.1349 55.8404,25.1039 C56.0384,25.0729 56.2234,25.0109 56.3984,24.9439 C56.3984,24.9439 56.5114,24.8999 56.5514,25.0169 L56.8454,25.8299 C56.8834,25.9309 56.7974,25.9719 56.7974,25.9719 L56.7974,25.9719 Z M51.4184,20.9049 C51.3924,20.9749 51.3494,21.0229 51.2704,21.0149 C51.2704,21.0149 51.0374,20.9599 50.8244,20.9599 C50.6774,20.9599 50.4694,20.9789 50.2804,21.0369 C50.0964,21.0929 49.9274,21.1939 49.7794,21.3379 C49.6314,21.4819 49.5114,21.6829 49.4234,21.9349 C49.3344,22.1889 49.2894,22.5939 49.2894,22.9999 L49.2894,26.0229 C49.2894,26.0909 49.2344,26.1459 49.1664,26.1459 L48.1004,26.1459 C48.0324,26.1459 47.9774,26.0909 47.9774,26.0229 L47.9774,19.9709 C47.9774,19.9029 48.0264,19.8479 48.0934,19.8479 L49.1344,19.8479 C49.2024,19.8479 49.2504,19.9029 49.2504,19.9709 L49.2504,20.4659 C49.4064,20.2559 49.6844,20.0729 49.9364,19.9599 C50.1894,19.8459 50.4724,19.7599 50.9824,19.7909 C51.2484,19.8079 51.5934,19.8809 51.6624,19.9069 C51.6894,19.9169 51.7544,19.9619 51.7234,20.0529 C51.6854,20.1639 51.4884,20.7199 51.4184,20.9049 L51.4184,20.9049 Z M46.7094,24.2919 C46.5914,24.6899 46.4074,25.0399 46.1634,25.3329 C45.9184,25.6269 45.6084,25.8599 45.2424,26.0269 C44.8754,26.1939 44.4444,26.2789 43.9584,26.2789 C43.4724,26.2789 43.0404,26.1939 42.6734,26.0269 C42.3074,25.8599 41.9974,25.6269 41.7524,25.3329 C41.5074,25.0389 41.3244,24.6889 41.2064,24.2919 C41.0904,23.8969 41.0304,23.4629 41.0304,23.0039 C41.0304,22.5439 41.0904,22.1109 41.2064,21.7159 C41.3244,21.3179 41.5084,20.9679 41.7524,20.6749 C41.9974,20.3809 42.3064,20.1459 42.6734,19.9749 C43.0394,19.8039 43.4714,19.7169 43.9584,19.7169 C44.4444,19.7169 44.8764,19.8039 45.2434,19.9749 C45.6094,20.1459 45.9194,20.3809 46.1634,20.6739 C46.4074,20.9669 46.5914,21.3169 46.7094,21.7159 C46.8264,22.1119 46.8854,22.5449 46.8854,23.0039 C46.8854,23.4629 46.8264,23.8959 46.7094,24.2919 L46.7094,24.2919 Z M40.7694,20.8169 C40.7464,20.9389 40.6334,20.9349 40.6334,20.9349 L39.2974,20.9349 L38.3834,26.1069 C38.2874,26.6409 38.1674,27.0999 38.0264,27.4699 C37.8844,27.8429 37.7354,28.1159 37.4994,28.3769 C37.2814,28.6189 37.0334,28.7979 36.7494,28.9009 C36.4674,29.0019 36.1274,29.0549 35.7534,29.0549 C35.5754,29.0549 35.3854,29.0519 35.1594,28.9979 C34.9974,28.9599 34.9084,28.9319 34.7884,28.8899 C34.7384,28.8719 34.6974,28.8079 34.7264,28.7279 C34.7544,28.6469 34.9934,27.9899 35.0274,27.9029 C35.0684,27.7979 35.1744,27.8379 35.1744,27.8379 C35.2464,27.8689 35.2964,27.8899 35.3934,27.9089 C35.4894,27.9289 35.6204,27.9449 35.7184,27.9449 C35.8944,27.9449 36.0554,27.9229 36.1954,27.8759 C36.3654,27.8199 36.4634,27.7219 36.5664,27.5899 C36.6744,27.4529 36.7604,27.2639 36.8504,27.0129 C36.9404,26.7579 37.0214,26.4219 37.0924,26.0129 L38.0024,20.9349 L37.1064,20.9349 C36.9974,20.9349 36.9634,20.8849 36.9734,20.8039 L37.1254,19.9599 C37.1484,19.8379 37.2614,19.8419 37.2614,19.8419 L38.1824,19.8419 L38.2314,19.5679 C38.3694,18.7529 38.6434,18.1339 39.0474,17.7269 C39.4534,17.3179 40.0314,17.1099 40.7654,17.1099 C40.9754,17.1099 41.1614,17.1249 41.3164,17.1529 C41.4704,17.1819 41.5884,17.2079 41.7174,17.2479 C41.7464,17.2599 41.8244,17.2989 41.7924,17.3899 L41.4824,18.2419 C41.4564,18.3059 41.4384,18.3449 41.3064,18.3049 C41.2734,18.2949 41.2244,18.2809 41.0984,18.2539 C41.0074,18.2339 40.8874,18.2199 40.7654,18.2199 C40.6054,18.2199 40.4584,18.2409 40.3304,18.2829 C40.2044,18.3229 40.0904,18.3939 39.9904,18.4939 C39.8884,18.5959 39.7694,18.7439 39.7054,18.9269 C39.5574,19.3569 39.4984,19.8129 39.4914,19.8419 L40.7884,19.8419 C40.8974,19.8419 40.9314,19.8919 40.9214,19.9729 L40.7694,20.8169 Z M31.5894,25.8119 C31.4544,25.7349 31.3204,25.6659 31.1894,25.5709 C31.1754,25.5509 31.1154,25.5269 31.1594,25.4119 L31.4434,24.6259 C31.4844,24.4969 31.6054,24.5439 31.6324,24.5609 C31.7084,24.6109 31.7674,24.6509 31.8684,24.7099 C32.7034,25.2379 33.4764,25.2419 33.7184,25.2419 C34.3424,25.2419 34.7304,24.9119 34.7304,24.4669 L34.7304,24.4429 C34.7304,23.9559 34.1334,23.7739 33.4434,23.5619 L33.2904,23.5149 C32.3424,23.2439 31.3304,22.8539 31.3304,21.6549 L31.3304,21.6309 C31.3304,20.4929 32.2474,19.6989 33.5624,19.6989 L33.7054,19.6979 C34.4774,19.6979 35.2224,19.9219 35.7624,20.2509 C35.8114,20.2809 35.8594,20.3369 35.8324,20.4129 C35.8074,20.4819 35.5674,21.1259 35.5404,21.1979 C35.4894,21.3329 35.3504,21.2429 35.3504,21.2429 C34.8774,20.9819 34.1444,20.7759 33.5264,20.7759 C32.9694,20.7759 32.6104,21.0709 32.6104,21.4729 L32.6104,21.4969 C32.6104,21.9659 33.2244,22.1649 33.9364,22.3959 L34.0594,22.4369 C35.0034,22.7339 36.0104,23.1479 36.0104,24.2839 L36.0104,24.3089 C36.0104,25.5379 35.1184,26.3009 33.6824,26.3009 C32.9774,26.3009 32.3034,26.1899 31.5894,25.8119 L31.5894,25.8119 Z M30.3104,23.2369 C30.2994,23.3409 30.1924,23.3429 30.1924,23.3429 L26.1364,23.3389 C26.1614,23.9559 26.3084,24.3919 26.6074,24.6889 C26.9004,24.9789 27.3674,25.1649 27.9954,25.1659 C28.9594,25.1679 29.3714,24.9749 29.6614,24.8659 C29.6614,24.8659 29.7734,24.8259 29.8144,24.9369 L30.0794,25.6799 C30.1324,25.8049 30.0904,25.8489 30.0454,25.8739 C29.7904,26.0139 29.1744,26.2759 28.0024,26.2789 C27.4334,26.2809 26.9374,26.1989 26.5294,26.0409 C26.1184,25.8829 25.7754,25.6549 25.5084,25.3649 C25.2424,25.0769 25.0444,24.7299 24.9214,24.3339 C24.7984,23.9429 24.7364,23.5059 24.7364,23.0389 C24.7364,22.5789 24.7964,22.1429 24.9144,21.7439 C25.0334,21.3419 25.2174,20.9879 25.4644,20.6899 C25.7104,20.3929 26.0254,20.1529 26.3984,19.9769 C26.7714,19.8029 27.2314,19.7169 27.7384,19.7169 C28.1724,19.7169 28.5694,19.8109 28.9004,19.9529 C29.1544,20.0619 29.4094,20.2589 29.6704,20.5399 C29.8354,20.7179 30.0874,21.1049 30.1894,21.4899 C30.4504,22.4039 30.3154,23.1939 30.3104,23.2369 L30.3104,23.2369 Z M23.5924,26.0229 C23.5924,26.0909 23.5434,26.1459 23.4754,26.1459 L22.3994,26.1459 C22.3324,26.1459 22.2834,26.0909 22.2834,26.0229 L22.2834,17.3639 C22.2834,17.2959 22.3324,17.2409 22.3994,17.2409 L23.4754,17.2409 C23.5434,17.2409 23.5924,17.2959 23.5924,17.3639 L23.5924,26.0229 Z M20.8684,25.9059 C20.8684,25.9059 20.7194,25.9469 20.5834,25.9779 C20.4484,26.0099 19.9604,26.1089 19.5624,26.1769 C19.1604,26.2449 18.7464,26.2789 18.3294,26.2789 C17.9354,26.2789 17.5734,26.2419 17.2554,26.1699 C16.9324,26.0959 16.6544,25.9759 16.4284,25.8119 C16.2014,25.6469 16.0234,25.4329 15.8994,25.1769 C15.7764,24.9219 15.7134,24.6099 15.7134,24.2509 C15.7134,23.8979 15.7864,23.5829 15.9304,23.3149 C16.0744,23.0479 16.2724,22.8229 16.5194,22.6459 C16.7644,22.4709 17.0494,22.3389 17.3664,22.2529 C17.6824,22.1689 18.0184,22.1249 18.3654,22.1249 C18.6214,22.1249 18.8344,22.1319 18.9994,22.1429 C18.9994,22.1429 19.3194,22.1719 19.6674,22.2229 L19.6674,22.0509 C19.6674,21.5099 19.5554,21.2549 19.3334,21.0849 C19.1064,20.9109 18.7694,20.8219 18.3304,20.8219 C18.3304,20.8219 17.3434,20.8099 16.5634,21.2339 C16.5274,21.2549 16.4964,21.2669 16.4964,21.2669 C16.4964,21.2669 16.3994,21.3019 16.3634,21.2019 L16.0764,20.4299 C16.0324,20.3179 16.1124,20.2689 16.1124,20.2689 C16.4774,19.9829 17.3634,19.8109 17.3634,19.8109 C17.6564,19.7519 18.1454,19.7109 18.4504,19.7109 C19.2614,19.7109 19.8884,19.8999 20.3144,20.2719 C20.7414,20.6469 20.9584,21.2489 20.9584,22.0629 L20.9604,25.7729 C20.9604,25.7729 20.9684,25.8809 20.8684,25.9059 L20.8684,25.9059 Z M14.9894,24.3089 C14.9894,25.5379 14.0974,26.3009 12.6614,26.3009 C11.9564,26.3009 11.2824,26.1899 10.5684,25.8119 C10.4334,25.7349 10.3004,25.6659 10.1684,25.5709 C10.1544,25.5509 10.0944,25.5269 10.1384,25.4119 L10.4224,24.6259 C10.4674,24.4909 10.5694,24.5359 10.6114,24.5609 C10.6884,24.6089 10.7464,24.6509 10.8474,24.7099 C11.6824,25.2379 12.4554,25.2419 12.6974,25.2419 C13.3214,25.2419 13.7094,24.9119 13.7094,24.4669 L13.7094,24.4429 C13.7094,23.9559 13.1124,23.7739 12.4224,23.5619 L12.2694,23.5149 C11.3214,23.2439 10.3094,22.8539 10.3094,21.6549 L10.3094,21.6309 C10.3094,20.4929 11.2264,19.6989 12.5414,19.6989 L12.6844,19.6979 C13.4564,19.6979 14.2014,19.9219 14.7414,20.2509 C14.7904,20.2809 14.8384,20.3369 14.8114,20.4129 C14.7864,20.4819 14.5464,21.1259 14.5194,21.1979 C14.4684,21.3329 14.3294,21.2429 14.3294,21.2429 C13.8564,20.9819 13.1234,20.7759 12.5054,20.7759 C11.9484,20.7759 11.5894,21.0709 11.5894,21.4729 L11.5894,21.4969 C11.5894,21.9659 12.2044,22.1649 12.9154,22.3959 L13.0384,22.4369 C13.9824,22.7339 14.9894,23.1479 14.9894,24.2839 L14.9894,24.3089 Z M54.9094,6.6409 C52.7364,6.6409 50.6714,7.1039 48.8054,7.9379 C46.6584,4.1129 42.6274,1.5369 38.0064,1.5369 C34.5304,1.5369 31.3874,2.9959 29.1294,5.3479 C26.6454,2.0999 22.7284,0.0039 18.3194,0.0039 C10.8104,0.0039 4.7234,6.0829 4.7234,13.5819 C4.7234,15.5009 5.1234,17.3259 5.8424,18.9809 C2.3494,21.0219 0.0004,24.8369 0.0004,29.2069 C0.0004,35.7269 5.2304,41.0119 11.6834,41.0119 C12.5064,41.0119 13.3104,40.9259 14.0854,40.7619 C15.8574,45.5709 20.4764,48.9999 25.8964,48.9999 C31.0994,48.9999 35.5654,45.8389 37.4814,41.3309 C38.9394,42.0419 40.5774,42.4419 42.3084,42.4419 C46.4424,42.4419 50.0464,40.1629 51.9364,36.7909 C52.8974,36.9849 53.8914,37.0869 54.9094,37.0869 C63.2434,37.0869 70.0004,30.2719 70.0004,21.8639 C70.0004,13.4559 63.2434,6.6409 54.9094,6.6409 L54.9094,6.6409 Z" id="Fill-9"></path>
                </g>
                <path d="M92.4487,26.0405 C92.4487,24.6915 92.1517,23.6205 91.5577,22.8285 C90.9637,22.0365 90.1387,21.6405 89.0827,21.6405 C88.3927,21.6405 87.7777,21.8015 87.2347,22.1245 C86.6917,22.4475 86.2737,22.8875 85.9807,23.4445 C85.6867,24.0015 85.5407,24.6105 85.5407,25.2705 L85.5407,28.9885 C86.0537,29.5015 86.5637,29.8755 87.0697,30.1105 C87.5757,30.3445 88.1587,30.4615 88.8187,30.4615 C89.9917,30.4615 90.8897,30.0555 91.5137,29.2415 C92.1367,28.4275 92.4487,27.3605 92.4487,26.0405 M94.3847,26.0405 C94.3847,27.1555 94.1787,28.1605 93.7687,29.0535 C93.3577,29.9495 92.7607,30.6575 91.9757,31.1775 C91.1907,31.6985 90.2707,31.9575 89.2147,31.9575 C87.7917,31.9575 86.5677,31.4965 85.5407,30.5725 L85.5407,37.0185 L83.6707,37.0185 L83.6707,22.9605 C83.6707,22.1395 83.6187,21.3035 83.5167,20.4525 L85.2987,20.4525 C85.3717,20.9365 85.4237,21.5085 85.4527,22.1685 L85.4967,22.1685 C85.8637,21.5525 86.3767,21.0615 87.0367,20.6945 C87.6967,20.3285 88.5037,20.1445 89.4567,20.1445 C90.5277,20.1445 91.4287,20.4045 92.1627,20.9255 C92.8957,21.4465 93.4497,22.1505 93.8237,23.0375 C94.1977,23.9245 94.3847,24.9255 94.3847,26.0405" id="Fill-12" fill="#FEFEFE"></path>
                <path d="M103.3715,27.5141 L103.3715,26.0621 L102.3815,26.0401 C101.2815,26.0401 100.4045,26.1141 99.7525,26.2601 C99.0995,26.4071 98.6155,26.6561 98.3005,27.0081 C97.9845,27.3601 97.8275,27.8521 97.8275,28.4821 C97.8275,29.1281 98.0175,29.6231 98.3985,29.9681 C98.7795,30.3121 99.3085,30.4841 99.9825,30.4841 C100.6865,30.4841 101.2955,30.3341 101.8095,30.0331 C102.3225,29.7331 102.7115,29.3541 102.9755,28.9001 C103.2395,28.4461 103.3715,27.9841 103.3715,27.5141 M95.8915,28.5931 C95.8915,27.1401 96.4155,26.1321 97.4645,25.5671 C98.5125,25.0031 100.0935,24.7201 102.2055,24.7201 C102.7185,24.7201 103.1065,24.7281 103.3715,24.7421 L103.3715,24.1041 C103.3715,23.2681 103.1435,22.6451 102.6885,22.2341 C102.2345,21.8241 101.5375,21.6181 100.5995,21.6181 C99.4115,21.6181 98.2895,21.9341 97.2335,22.5641 L96.5735,21.3101 C97.8345,20.5331 99.2135,20.1441 100.7095,20.1441 C102.2785,20.1441 103.4265,20.5111 104.1515,21.2441 C104.8785,21.9781 105.2415,23.0921 105.2415,24.5881 L105.2415,29.1651 C105.2415,29.9711 105.2925,30.8001 105.3945,31.6501 L103.6795,31.6501 C103.5765,31.0051 103.5245,30.4991 103.5245,30.1331 L103.4595,30.1331 C103.0485,30.7341 102.5315,31.1881 101.9085,31.4961 C101.2845,31.8051 100.4815,31.9581 99.4995,31.9581 C98.4135,31.9581 97.5415,31.6691 96.8815,31.0901 C96.2215,30.5101 95.8915,29.6781 95.8915,28.5931" id="Fill-14" fill="#FEFEFE"></path>
                <path d="M108.103,22.9604 C108.103,22.1394 108.052,21.3034 107.95,20.4524 L109.731,20.4524 C109.804,20.9514 109.856,21.5454 109.885,22.2344 L109.929,22.2344 C110.575,20.8414 111.748,20.1444 113.45,20.1444 C113.567,20.1444 113.78,20.1664 114.087,20.2104 L113.977,21.8164 C113.831,21.7874 113.603,21.7724 113.295,21.7724 C112.225,21.7724 111.404,22.1314 110.832,22.8504 C110.259,23.5694 109.973,24.5004 109.973,25.6444 L109.973,31.6504 L108.103,31.6504 L108.103,22.9604 Z" id="Fill-16" fill="#FEFEFE"></path>
                <path d="M118.7534,20.4521 L121.7244,20.4521 L121.7244,21.8821 L118.7534,21.8821 L118.7534,28.6371 C118.7534,29.8391 119.3044,30.4401 120.4034,30.4401 C120.7994,30.4401 121.1664,30.3901 121.5034,30.2861 L121.7894,31.6731 C121.2904,31.8631 120.7114,31.9581 120.0514,31.9581 C119.0684,31.9581 118.2954,31.6831 117.7314,31.1341 C117.1654,30.5831 116.8834,29.8031 116.8834,28.7911 L116.8834,21.8821 L114.9034,21.8821 L114.9034,20.6721 L116.8614,20.4521 L116.8614,17.7021 L118.7534,17.0421 L118.7534,20.4521 Z" id="Fill-18" fill="#FEFEFE"></path>
                <path d="M123.6782,22.9604 C123.6782,22.1394 123.6272,21.3034 123.5252,20.4524 L125.3062,20.4524 C125.3792,20.8484 125.4312,21.3764 125.4602,22.0364 L125.5042,22.0364 C125.8702,21.4644 126.3842,21.0064 127.0442,20.6614 C127.7042,20.3164 128.4892,20.1444 129.3992,20.1444 C130.8062,20.1444 131.8522,20.5514 132.5332,21.3654 C133.2152,22.1794 133.5562,23.1954 133.5562,24.4124 L133.5562,31.6504 L131.6872,31.6504 L131.6872,24.7864 C131.6872,23.8924 131.4662,23.1544 131.0272,22.5754 C130.5862,21.9964 129.8752,21.7064 128.8932,21.7064 C127.8802,21.7064 127.0702,22.0404 126.4612,22.7074 C125.8532,23.3754 125.5482,24.2144 125.5482,25.2264 L125.5482,31.6504 L123.6782,31.6504 L123.6782,22.9604 Z" id="Fill-20" fill="#FEFEFE"></path>
                <path d="M144.2221,25.2704 C144.1921,24.1554 143.9061,23.2614 143.3641,22.5864 C142.8211,21.9124 142.0361,21.5744 141.0101,21.5744 C139.9681,21.5744 139.1611,21.9224 138.5891,22.6194 C138.0181,23.3164 137.7091,24.2004 137.6651,25.2704 L144.2221,25.2704 Z M146.0031,26.7224 L137.6881,26.7224 C137.7611,27.8664 138.1061,28.7764 138.7221,29.4504 C139.3371,30.1244 140.2181,30.4614 141.3621,30.4614 C142.0361,30.4614 142.6411,30.3714 143.1771,30.1874 C143.7121,30.0034 144.2511,29.7294 144.7931,29.3624 L145.6291,30.5724 C144.9981,31.0274 144.3271,31.3724 143.6171,31.6064 C142.9051,31.8404 142.1171,31.9574 141.2511,31.9574 C139.5351,31.9574 138.1971,31.4164 137.2371,30.3304 C136.2761,29.2454 135.7951,27.8004 135.7951,25.9964 C135.7951,24.8374 136.0011,23.8184 136.4111,22.9384 C136.8221,22.0584 137.4201,21.3734 138.2041,20.8814 C138.9891,20.3904 139.9321,20.1444 141.0321,20.1444 C142.6601,20.1444 143.9031,20.6724 144.7611,21.7284 C145.6181,22.7844 146.0471,24.1854 146.0471,25.9304 C146.0471,26.2824 146.0331,26.5464 146.0031,26.7224 L146.0031,26.7224 Z" id="Fill-22" fill="#FEFEFE"></path>
                <path d="M148.3246,22.9604 C148.3246,22.1394 148.2736,21.3034 148.1716,20.4524 L149.9526,20.4524 C150.0256,20.9514 150.0776,21.5454 150.1066,22.2344 L150.1506,22.2344 C150.7966,20.8414 151.9696,20.1444 153.6716,20.1444 C153.7886,20.1444 154.0016,20.1664 154.3086,20.2104 L154.1986,21.8164 C154.0526,21.7874 153.8246,21.7724 153.5166,21.7724 C152.4466,21.7724 151.6256,22.1314 151.0536,22.8504 C150.4806,23.5694 150.1946,24.5004 150.1946,25.6444 L150.1946,31.6504 L148.3246,31.6504 L148.3246,22.9604 Z" id="Fill-24" fill="#FEFEFE"></path>
                <path d="M83.725,8.6904 C83.725,8.2804 83.7,7.8614 83.648,7.4364 L84.539,7.4364 C84.576,7.6864 84.601,7.9824 84.616,8.3274 L84.638,8.3274 C84.961,7.6304 85.547,7.2824 86.398,7.2824 C86.457,7.2824 86.563,7.2934 86.717,7.3154 L86.662,8.1184 C86.589,8.1044 86.475,8.0964 86.321,8.0964 C85.786,8.0964 85.375,8.2764 85.089,8.6354 C84.803,8.9954 84.66,9.4604 84.66,10.0324 L84.66,13.0354 L83.725,13.0354 L83.725,8.6904 Z" id="Fill-26" fill="#FEFEFE"></path>
                <path d="M91.332,9.8456 C91.317,9.2886 91.174,8.8406 90.903,8.5036 C90.631,8.1666 90.239,7.9976 89.726,7.9976 C89.205,7.9976 88.802,8.1716 88.516,8.5196 C88.23,8.8686 88.076,9.3106 88.054,9.8456 L91.332,9.8456 Z M92.223,10.5716 L88.065,10.5716 C88.102,11.1436 88.274,11.5986 88.582,11.9356 C88.89,12.2726 89.33,12.4416 89.902,12.4416 C90.239,12.4416 90.541,12.3956 90.81,12.3036 C91.077,12.2126 91.347,12.0746 91.618,11.8916 L92.036,12.4966 C91.72,12.7236 91.385,12.8966 91.029,13.0136 C90.673,13.1306 90.279,13.1896 89.847,13.1896 C88.989,13.1896 88.319,12.9186 87.839,12.3756 C87.359,11.8326 87.119,11.1106 87.119,10.2086 C87.119,9.6296 87.222,9.1196 87.427,8.6796 C87.632,8.2396 87.931,7.8966 88.323,7.6516 C88.715,7.4056 89.187,7.2826 89.737,7.2826 C90.551,7.2826 91.172,7.5466 91.602,8.0746 C92.03,8.6026 92.245,9.3036 92.245,10.1756 C92.245,10.3516 92.237,10.4836 92.223,10.5716 L92.223,10.5716 Z" id="Fill-28" fill="#FEFEFE"></path>
                <path d="M96.9077,9.3178 C96.9077,8.9148 96.7877,8.5918 96.5457,8.3498 C96.3037,8.1078 95.9437,7.9868 95.4677,7.9868 C95.0267,7.9868 94.6777,8.1038 94.4167,8.3388 C94.1567,8.5728 94.0257,8.8888 94.0257,9.2848 C94.0257,9.7028 94.1447,10.0288 94.3837,10.2638 C94.6217,10.4988 94.9827,10.6158 95.4677,10.6158 C96.4287,10.6158 96.9077,10.1828 96.9077,9.3178 M97.3917,13.9598 C97.3917,13.7398 97.3097,13.5598 97.1447,13.4208 C96.9797,13.2808 96.6987,13.1748 96.3037,13.1018 C95.9067,13.0278 95.3647,12.9918 94.6757,12.9918 C94.3447,13.1378 94.1067,13.3048 93.9607,13.4918 C93.8127,13.6788 93.7397,13.8938 93.7397,14.1358 C93.7397,14.8178 94.2787,15.1588 95.3567,15.1588 C96.0237,15.1588 96.5307,15.0558 96.8757,14.8508 C97.2197,14.6448 97.3917,14.3478 97.3917,13.9598 M92.8277,14.1798 C92.8277,13.8638 92.9167,13.5798 93.0957,13.3268 C93.2757,13.0738 93.5717,12.8448 93.9817,12.6398 C93.6227,12.4788 93.4427,12.2328 93.4427,11.9028 C93.4427,11.7048 93.5147,11.5288 93.6577,11.3748 C93.8007,11.2208 94.0007,11.1068 94.2577,11.0338 C93.9127,10.8948 93.6427,10.6818 93.4487,10.3958 C93.2547,10.1098 93.1567,9.7468 93.1567,9.3068 C93.1567,8.6838 93.3627,8.1918 93.7727,7.8328 C94.1837,7.4738 94.7557,7.2938 95.4887,7.2938 C95.6867,7.2938 95.8537,7.3048 95.9897,7.3268 C96.1257,7.3488 96.2887,7.3848 96.4787,7.4368 L98.4267,7.4368 L98.4267,8.1848 L97.1827,8.0528 C97.3587,8.1768 97.5027,8.3538 97.6117,8.5808 C97.7217,8.8078 97.7767,9.0798 97.7767,9.3948 C97.7767,9.9888 97.5757,10.4528 97.1727,10.7858 C96.7687,11.1198 96.2047,11.2868 95.4777,11.2868 C95.1117,11.2868 94.8237,11.3348 94.6147,11.4298 C94.4057,11.5248 94.3017,11.6568 94.3017,11.8258 C94.3017,12.1268 94.6567,12.2798 95.3687,12.2878 C96.4017,12.3018 97.1517,12.4398 97.6177,12.6998 C98.0837,12.9608 98.3157,13.3548 98.3157,13.8828 C98.3157,14.5128 98.0537,15.0008 97.5297,15.3458 C97.0057,15.6908 96.2697,15.8628 95.3237,15.8628 C94.5027,15.8628 93.8817,15.7158 93.4597,15.4228 C93.0377,15.1298 92.8277,14.7148 92.8277,14.1798" id="Fill-30" fill="#FEFEFE"></path>
                <mask id="mask-2" fill="white">
                    <use xlink:href="#path-1"></use>
                </mask>
                <g id="Clip-33"></g>
                <path d="M99.41,13.0352 L100.344,13.0352 L100.344,7.4362 L99.41,7.4362 L99.41,13.0352 Z M99.267,5.5222 C99.267,5.1262 99.473,4.9282 99.883,4.9282 C100.286,4.9282 100.489,5.1262 100.489,5.5222 C100.489,5.6912 100.44,5.8292 100.344,5.9352 C100.25,6.0412 100.096,6.0942 99.883,6.0942 C99.663,6.0942 99.504,6.0412 99.411,5.9352 C99.315,5.8292 99.267,5.6912 99.267,5.5222 L99.267,5.5222 Z" id="Fill-32" fill="#FEFEFE" mask="url(#mask-2)"></path>
                <path d="M105.3901,7.8764 L104.9721,8.4594 C104.5391,8.1594 104.0701,8.0084 103.5641,8.0084 C103.2121,8.0084 102.9371,8.0764 102.7391,8.2114 C102.5411,8.3484 102.4421,8.5404 102.4421,8.7894 C102.4421,8.9734 102.4821,9.1234 102.5631,9.2404 C102.6441,9.3574 102.7801,9.4574 102.9701,9.5374 C103.1611,9.6184 103.4391,9.7024 103.8061,9.7904 C104.3781,9.9304 104.8011,10.1334 105.0771,10.4014 C105.3521,10.6684 105.4891,11.0194 105.4891,11.4514 C105.4891,12.0014 105.2841,12.4284 104.8731,12.7324 C104.4621,13.0374 103.9561,13.1894 103.3551,13.1894 C102.5481,13.1894 101.8731,12.9734 101.3311,12.5404 L101.7601,11.9574 C102.0091,12.1264 102.2551,12.2514 102.4971,12.3314 C102.7391,12.4124 103.0141,12.4524 103.3221,12.4524 C103.6961,12.4524 103.9921,12.3724 104.2071,12.2104 C104.4241,12.0494 104.5321,11.8184 104.5321,11.5174 C104.5321,11.3194 104.4921,11.1604 104.4111,11.0394 C104.3301,10.9184 104.1971,10.8174 104.0091,10.7364 C103.8231,10.6564 103.5421,10.5674 103.1681,10.4724 C102.5881,10.3264 102.1671,10.1274 101.9031,9.8784 C101.6391,9.6294 101.5071,9.2844 101.5071,8.8444 C101.5071,8.3684 101.6921,7.9884 102.0631,7.7064 C102.4331,7.4234 102.9221,7.2824 103.5311,7.2824 C104.2491,7.2824 104.8691,7.4804 105.3901,7.8764" id="Fill-34" fill="#FEFEFE" mask="url(#mask-2)"></path>
                <path d="M108.0385,7.4364 L109.5235,7.4364 L109.5235,8.1514 L108.0385,8.1514 L108.0385,11.5284 C108.0385,12.1294 108.3135,12.4304 108.8635,12.4304 C109.0615,12.4304 109.2445,12.4054 109.4135,12.3534 L109.5575,13.0464 C109.3075,13.1424 109.0175,13.1894 108.6875,13.1894 C108.1965,13.1894 107.8095,13.0524 107.5265,12.7774 C107.2445,12.5014 107.1035,12.1114 107.1035,11.6054 L107.1035,8.1514 L106.1135,8.1514 L106.1135,7.5464 L107.0925,7.4364 L107.0925,6.0614 L108.0385,5.7314 L108.0385,7.4364 Z" id="Fill-35" fill="#FEFEFE" mask="url(#mask-2)"></path>
                <path d="M114.31,9.8456 C114.295,9.2886 114.153,8.8406 113.881,8.5036 C113.61,8.1666 113.217,7.9976 112.705,7.9976 C112.183,7.9976 111.781,8.1716 111.495,8.5196 C111.208,8.8686 111.054,9.3106 111.033,9.8456 L114.31,9.8456 Z M115.202,10.5716 L111.043,10.5716 C111.08,11.1436 111.252,11.5986 111.56,11.9356 C111.869,12.2726 112.308,12.4416 112.88,12.4416 C113.217,12.4416 113.52,12.3956 113.788,12.3036 C114.055,12.2126 114.325,12.0746 114.596,11.8916 L115.014,12.4966 C114.699,12.7236 114.364,12.8966 114.008,13.0136 C113.652,13.1306 113.258,13.1896 112.826,13.1896 C111.967,13.1896 111.298,12.9186 110.818,12.3756 C110.337,11.8326 110.097,11.1106 110.097,10.2086 C110.097,9.6296 110.2,9.1196 110.406,8.6796 C110.611,8.2396 110.91,7.8966 111.302,7.6516 C111.694,7.4056 112.165,7.2826 112.715,7.2826 C113.53,7.2826 114.151,7.5466 114.58,8.0746 C115.009,8.6026 115.223,9.3036 115.223,10.1756 C115.223,10.3516 115.216,10.4836 115.202,10.5716 L115.202,10.5716 Z" id="Fill-36" fill="#FEFEFE" mask="url(#mask-2)"></path>
                <path d="M116.4516,8.6904 C116.4516,8.2804 116.4256,7.8614 116.3746,7.4364 L117.2646,7.4364 C117.3026,7.6864 117.3276,7.9824 117.3426,8.3274 L117.3646,8.3274 C117.6866,7.6304 118.2736,7.2824 119.1246,7.2824 C119.1826,7.2824 119.2896,7.2934 119.4436,7.3154 L119.3886,8.1184 C119.3146,8.1044 119.2016,8.0964 119.0476,8.0964 C118.5126,8.0964 118.1006,8.2764 117.8146,8.6354 C117.5296,8.9954 117.3866,9.4604 117.3866,10.0324 L117.3866,13.0354 L116.4516,13.0354 L116.4516,8.6904 Z" id="Fill-37" fill="#FEFEFE" mask="url(#mask-2)"></path>
                <path d="M124.058,9.8456 C124.043,9.2886 123.901,8.8406 123.629,8.5036 C123.358,8.1666 122.965,7.9976 122.453,7.9976 C121.931,7.9976 121.529,8.1716 121.243,8.5196 C120.956,8.8686 120.802,9.3106 120.781,9.8456 L124.058,9.8456 Z M124.95,10.5716 L120.791,10.5716 C120.828,11.1436 121,11.5986 121.308,11.9356 C121.617,12.2726 122.056,12.4416 122.628,12.4416 C122.965,12.4416 123.268,12.3956 123.536,12.3036 C123.803,12.2126 124.073,12.0746 124.344,11.8916 L124.762,12.4966 C124.447,12.7236 124.112,12.8966 123.756,13.0136 C123.4,13.1306 123.006,13.1896 122.574,13.1896 C121.715,13.1896 121.046,12.9186 120.566,12.3756 C120.085,11.8326 119.845,11.1106 119.845,10.2086 C119.845,9.6296 119.948,9.1196 120.154,8.6796 C120.359,8.2396 120.658,7.8966 121.05,7.6516 C121.442,7.4056 121.913,7.2826 122.463,7.2826 C123.278,7.2826 123.899,7.5466 124.328,8.0746 C124.757,8.6026 124.971,9.3036 124.971,10.1756 C124.971,10.3516 124.964,10.4836 124.95,10.5716 L124.95,10.5716 Z" id="Fill-38" fill="#FEFEFE" mask="url(#mask-2)"></path>
                <path d="M130.3061,10.6264 L130.3061,8.8664 C130.0861,8.5874 129.8381,8.3804 129.5641,8.2454 C129.2881,8.1094 128.9711,8.0414 128.6121,8.0414 C128.0701,8.0414 127.6421,8.2474 127.3301,8.6574 C127.0191,9.0684 126.8631,9.6004 126.8631,10.2524 C126.8631,10.9274 127.0131,11.4604 127.3141,11.8534 C127.6151,12.2454 128.0291,12.4414 128.5571,12.4414 C129.0851,12.4414 129.5081,12.2714 129.8271,11.9304 C130.1471,11.5894 130.3061,11.1544 130.3061,10.6264 M131.3181,13.0354 L130.4491,13.0354 C130.3981,12.7124 130.3721,12.4344 130.3721,12.1994 L130.3501,12.1994 C129.9321,12.8594 129.2651,13.1894 128.3481,13.1894 C127.5561,13.1894 126.9501,12.9184 126.5281,12.3754 C126.1061,11.8334 125.8951,11.1254 125.8951,10.2524 C125.8951,9.6954 125.9991,9.1904 126.2081,8.7404 C126.4171,8.2894 126.7161,7.9334 127.1051,7.6734 C127.4931,7.4134 127.9521,7.2824 128.4801,7.2824 C129.2281,7.2824 129.8361,7.5244 130.3061,8.0084 L130.3061,5.2474 L131.2421,5.2474 L131.2421,11.7924 C131.2421,12.1954 131.2671,12.6104 131.3181,13.0354" id="Fill-39" fill="#FEFEFE" mask="url(#mask-2)"></path>
                <path d="M137.8959,7.2826 C138.2479,7.2826 138.5829,7.3356 138.9019,7.4426 C139.2209,7.5486 139.5049,7.6976 139.7539,7.8876 L139.3799,8.5366 C138.9559,8.2206 138.4599,8.0636 137.8959,8.0636 C137.2939,8.0636 136.8389,8.2596 136.5319,8.6526 C136.2239,9.0446 136.0699,9.5706 136.0699,10.2306 C136.0699,10.8756 136.2239,11.3986 136.5319,11.7986 C136.8389,12.1976 137.2909,12.3976 137.8839,12.3976 C138.3909,12.3976 138.8929,12.2406 139.3919,11.9246 L139.7329,12.5846 C139.1749,12.9876 138.5379,13.1896 137.8189,13.1896 C137.1879,13.1896 136.6709,13.0486 136.2679,12.7656 C135.8649,12.4836 135.5729,12.1186 135.3929,11.6716 C135.2129,11.2246 135.1239,10.7436 135.1239,10.2306 C135.1239,9.3356 135.3699,8.6206 135.8609,8.0856 C136.3519,7.5506 137.0309,7.2826 137.8959,7.2826" id="Fill-40" fill="#FEFEFE" mask="url(#mask-2)"></path>
                <path d="M141.2319,10.2196 C141.2319,10.8866 141.3839,11.4246 141.6889,11.8306 C141.9929,12.2386 142.4539,12.4416 143.0699,12.4416 C143.6929,12.4416 144.1589,12.2386 144.4659,11.8306 C144.7739,11.4246 144.9279,10.8866 144.9279,10.2196 C144.9279,9.5526 144.7739,9.0206 144.4659,8.6246 C144.1589,8.2286 143.6929,8.0306 143.0699,8.0306 C142.4459,8.0306 141.9839,8.2286 141.6829,8.6246 C141.3819,9.0206 141.2319,9.5526 141.2319,10.2196 M145.8849,10.2196 C145.8849,10.7986 145.7739,11.3136 145.5499,11.7646 C145.3259,12.2166 145.0029,12.5666 144.5819,12.8156 C144.1599,13.0646 143.6559,13.1896 143.0699,13.1896 C142.4899,13.1896 141.9879,13.0626 141.5619,12.8096 C141.1369,12.5566 140.8139,12.2066 140.5939,11.7596 C140.3749,11.3126 140.2639,10.7986 140.2639,10.2196 C140.2639,9.3246 140.5099,8.6116 141.0019,8.0796 C141.4929,7.5486 142.1819,7.2826 143.0699,7.2826 C143.6639,7.2826 144.1709,7.4056 144.5929,7.6516 C145.0139,7.8966 145.3359,8.2396 145.5549,8.6796 C145.7749,9.1196 145.8849,9.6326 145.8849,10.2196" id="Fill-41" fill="#FEFEFE" mask="url(#mask-2)"></path>
                <path d="M147.1196,8.6904 C147.1196,8.2804 147.0936,7.8614 147.0426,7.4364 L147.9326,7.4364 C147.9706,7.6344 147.9956,7.8984 148.0106,8.2284 L148.0326,8.2284 C148.2156,7.9424 148.4726,7.7134 148.8026,7.5414 C149.1326,7.3694 149.5246,7.2824 149.9786,7.2824 C150.6826,7.2824 151.2056,7.4864 151.5466,7.8934 C151.8886,8.3004 152.0576,8.8084 152.0576,9.4164 L152.0576,13.0354 L151.1236,13.0354 L151.1236,9.6034 C151.1236,9.1564 151.0136,8.7884 150.7936,8.4984 C150.5736,8.2084 150.2176,8.0634 149.7256,8.0634 C149.2206,8.0634 148.8146,8.2304 148.5116,8.5644 C148.2066,8.8984 148.0546,9.3174 148.0546,9.8234 L148.0546,13.0354 L147.1196,13.0354 L147.1196,8.6904 Z" id="Fill-42" fill="#FEFEFE" mask="url(#mask-2)"></path>
                <path d="M157.0629,7.8764 L156.6449,8.4594 C156.2119,8.1594 155.7429,8.0084 155.2369,8.0084 C154.8849,8.0084 154.6099,8.0764 154.4119,8.2114 C154.2139,8.3484 154.1149,8.5404 154.1149,8.7894 C154.1149,8.9734 154.1549,9.1234 154.2359,9.2404 C154.3169,9.3574 154.4529,9.4574 154.6429,9.5374 C154.8339,9.6184 155.1119,9.7024 155.4789,9.7904 C156.0509,9.9304 156.4739,10.1334 156.7499,10.4014 C157.0249,10.6684 157.1619,11.0194 157.1619,11.4514 C157.1619,12.0014 156.9569,12.4284 156.5459,12.7324 C156.1349,13.0374 155.6289,13.1894 155.0279,13.1894 C154.2209,13.1894 153.5459,12.9734 153.0039,12.5404 L153.4329,11.9574 C153.6819,12.1264 153.9279,12.2514 154.1699,12.3314 C154.4119,12.4124 154.6869,12.4524 154.9949,12.4524 C155.3689,12.4524 155.6649,12.3724 155.8799,12.2104 C156.0969,12.0494 156.2049,11.8184 156.2049,11.5174 C156.2049,11.3194 156.1649,11.1604 156.0839,11.0394 C156.0029,10.9184 155.8699,10.8174 155.6819,10.7364 C155.4959,10.6564 155.2149,10.5674 154.8409,10.4724 C154.2609,10.3264 153.8399,10.1274 153.5759,9.8784 C153.3119,9.6294 153.1799,9.2844 153.1799,8.8444 C153.1799,8.3684 153.3649,7.9884 153.7359,7.7064 C154.1059,7.4234 154.5949,7.2824 155.2039,7.2824 C155.9219,7.2824 156.5419,7.4804 157.0629,7.8764" id="Fill-43" fill="#FEFEFE" mask="url(#mask-2)"></path>
                <path d="M158.2153,10.8686 L158.2153,7.4366 L159.1613,7.4366 L159.1613,10.7366 C159.1613,11.2496 159.2733,11.6626 159.4963,11.9736 C159.7203,12.2856 160.0673,12.4416 160.5363,12.4416 C161.0493,12.4416 161.4603,12.2486 161.7683,11.8646 C162.0763,11.4786 162.2303,11.0006 162.2303,10.4286 L162.2303,7.4366 L163.1653,7.4366 L163.1653,11.7926 C163.1653,12.1956 163.1913,12.6106 163.2423,13.0356 L162.3513,13.0356 C162.3143,12.8016 162.2883,12.5036 162.2743,12.1446 L162.2523,12.1446 C161.8493,12.8416 161.2033,13.1896 160.3163,13.1896 C159.6193,13.1896 159.0953,12.9746 158.7433,12.5466 C158.3913,12.1176 158.2153,11.5576 158.2153,10.8686" id="Fill-44" fill="#FEFEFE" mask="url(#mask-2)"></path>
                <polygon id="Fill-45" fill="#FEFEFE" mask="url(#mask-2)" points="164.771 13.0352 165.706 13.0352 165.706 5.2472 164.771 5.2472"></polygon>
                <path d="M168.56,7.4364 L170.045,7.4364 L170.045,8.1514 L168.56,8.1514 L168.56,11.5284 C168.56,12.1294 168.835,12.4304 169.385,12.4304 C169.583,12.4304 169.766,12.4054 169.935,12.3534 L170.079,13.0464 C169.829,13.1424 169.539,13.1894 169.209,13.1894 C168.718,13.1894 168.331,13.0524 168.048,12.7774 C167.766,12.5014 167.625,12.1114 167.625,11.6054 L167.625,8.1514 L166.635,8.1514 L166.635,7.5464 L167.614,7.4364 L167.614,6.0614 L168.56,5.7314 L168.56,7.4364 Z" id="Fill-46" fill="#FEFEFE" mask="url(#mask-2)"></path>
                <path d="M171.091,13.0352 L172.026,13.0352 L172.026,7.4362 L171.091,7.4362 L171.091,13.0352 Z M170.949,5.5222 C170.949,5.1262 171.154,4.9282 171.564,4.9282 C171.967,4.9282 172.169,5.1262 172.169,5.5222 C172.169,5.6912 172.122,5.8292 172.026,5.9352 C171.931,6.0412 171.777,6.0942 171.564,6.0942 C171.344,6.0942 171.186,6.0412 171.091,5.9352 C170.996,5.8292 170.949,5.6912 170.949,5.5222 L170.949,5.5222 Z" id="Fill-47" fill="#FEFEFE" mask="url(#mask-2)"></path>
                <path d="M173.6313,8.6904 C173.6313,8.2804 173.6053,7.8614 173.5543,7.4364 L174.4443,7.4364 C174.4823,7.6344 174.5073,7.8984 174.5223,8.2284 L174.5443,8.2284 C174.7273,7.9424 174.9843,7.7134 175.3143,7.5414 C175.6443,7.3694 176.0363,7.2824 176.4903,7.2824 C177.1943,7.2824 177.7173,7.4864 178.0583,7.8934 C178.4003,8.3004 178.5693,8.8084 178.5693,9.4164 L178.5693,13.0354 L177.6353,13.0354 L177.6353,9.6034 C177.6353,9.1564 177.5253,8.7884 177.3053,8.4984 C177.0853,8.2084 176.7293,8.0634 176.2373,8.0634 C175.7323,8.0634 175.3263,8.2304 175.0233,8.5644 C174.7183,8.8984 174.5663,9.3174 174.5663,9.8234 L174.5663,13.0354 L173.6313,13.0354 L173.6313,8.6904 Z" id="Fill-48" fill="#FEFEFE" mask="url(#mask-2)"></path>
                <path d="M183.4926,9.3178 C183.4926,8.9148 183.3716,8.5918 183.1306,8.3498 C182.8886,8.1078 182.5286,7.9868 182.0526,7.9868 C181.6116,7.9868 181.2616,8.1038 181.0016,8.3388 C180.7406,8.5728 180.6106,8.8888 180.6106,9.2848 C180.6106,9.7028 180.7296,10.0288 180.9686,10.2638 C181.2066,10.4988 181.5676,10.6158 182.0526,10.6158 C183.0126,10.6158 183.4926,10.1828 183.4926,9.3178 M183.9766,13.9598 C183.9766,13.7398 183.8936,13.5598 183.7286,13.4208 C183.5636,13.2808 183.2836,13.1748 182.8886,13.1018 C182.4916,13.0278 181.9486,12.9918 181.2606,12.9918 C180.9296,13.1378 180.6916,13.3048 180.5446,13.4918 C180.3976,13.6788 180.3246,13.8938 180.3246,14.1358 C180.3246,14.8178 180.8636,15.1588 181.9416,15.1588 C182.6086,15.1588 183.1146,15.0558 183.4596,14.8508 C183.8046,14.6448 183.9766,14.3478 183.9766,13.9598 M179.4116,14.1798 C179.4116,13.8638 179.5016,13.5798 179.6806,13.3268 C179.8606,13.0738 180.1556,12.8448 180.5666,12.6398 C180.2076,12.4788 180.0276,12.2328 180.0276,11.9028 C180.0276,11.7048 180.0986,11.5288 180.2426,11.3748 C180.3856,11.2208 180.5856,11.1068 180.8426,11.0338 C180.4976,10.8948 180.2276,10.6818 180.0336,10.3958 C179.8396,10.1098 179.7416,9.7468 179.7416,9.3068 C179.7416,8.6838 179.9466,8.1918 180.3576,7.8328 C180.7676,7.4738 181.3406,7.2938 182.0736,7.2938 C182.2716,7.2938 182.4386,7.3048 182.5746,7.3268 C182.7106,7.3488 182.8736,7.3848 183.0636,7.4368 L185.0116,7.4368 L185.0116,8.1848 L183.7676,8.0528 C183.9436,8.1768 184.0866,8.3538 184.1966,8.5808 C184.3066,8.8078 184.3616,9.0798 184.3616,9.3948 C184.3616,9.9888 184.1596,10.4528 183.7576,10.7858 C183.3526,11.1198 182.7886,11.2868 182.0626,11.2868 C181.6956,11.2868 181.4086,11.3348 181.1996,11.4298 C180.9906,11.5248 180.8866,11.6568 180.8866,11.8258 C180.8866,12.1268 181.2416,12.2798 181.9526,12.2878 C182.9866,12.3018 183.7366,12.4398 184.2026,12.6998 C184.6686,12.9608 184.9006,13.3548 184.9006,13.8828 C184.9006,14.5128 184.6386,15.0008 184.1146,15.3458 C183.5906,15.6908 182.8546,15.8628 181.9086,15.8628 C181.0876,15.8628 180.4666,15.7158 180.0446,15.4228 C179.6226,15.1298 179.4116,14.7148 179.4116,14.1798" id="Fill-49" fill="#FEFEFE" mask="url(#mask-2)"></path>
            </g>
        </g>
    </g>
</svg>